<svg xmlns="http://www.w3.org/2000/svg" width="22" height="22" viewBox="0 0 22 22">
    <path fill="#0078A9" fill-rule="evenodd" d="M22 14.244c0 .548-.353.803-.976.803h-1.186V14.5h1.186c.113 0 .203-.023.24-.06.038-.038.075-.098.075-.165 0-.075-.037-.15-.075-.18-.037-.038-.105-.06-.218-.06-.563-.023-1.284.022-1.284-.796 0-.368.24-.766.879-.766h1.224v.548h-1.126c-.113 0-.188 0-.24.037-.06.06-.098.113-.098.203 0 .098.06.15.127.18.075.023.15.038.24.038h.338c.346 0 .564.075.721.203.098.142.173.307.173.563m-2.575-.556c-.15-.128-.376-.203-.721-.203h-.338c-.083 0-.165-.022-.24-.037-.068-.03-.128-.083-.128-.18 0-.083.022-.143.098-.203.045-.038.127-.038.24-.038h1.126v-.548h-1.216c-.661 0-.879.406-.879.766 0 .811.721.773 1.284.796.113 0 .18.022.218.06.037.03.075.105.075.18 0 .068-.038.128-.075.165-.06.038-.128.06-.24.06h-1.187v.549h1.187c.623 0 .976-.256.976-.804 0-.263-.083-.428-.18-.563m-2.358.834h-1.442v-.519h1.42v-.518h-1.42v-.465h1.442v-.54h-2.05v2.567h2.05v-.525zm-2.703-1.915c-.203-.105-.443-.128-.759-.128h-1.404v2.568h.624v-.931h.66c.218 0 .346.023.443.113.105.127.105.345.105.518v.308h.616v-.496c0-.233-.022-.345-.097-.473-.06-.075-.166-.173-.316-.218.173-.06.443-.278.443-.683-.007-.3-.112-.458-.315-.578m-3.484-.12H8.92l-.796.84-.743-.84H4.903v2.568h2.44l.781-.841.759.84h1.186v-.863h.773c.526 0 1.059-.143 1.059-.863.008-.699-.54-.841-1.021-.841m2.988 1.058c-.097.038-.18.038-.293.038l-.743.022v-.585h.743c.113 0 .218 0 .293.045.075.037.128.112.128.218-.008.12-.053.21-.128.262m-2.988.128h-.811v-.653h.81c.219 0 .361.082.361.308.008.217-.135.345-.36.345m-2.358.098l.946-1.006v2.072l-.946-1.066zm-1.494.75H5.511v-.518h1.36v-.518H5.51v-.465h1.54l.675.75-.698.752zm13.275-3.896h-.878l-1.157-1.923v1.923h-1.246l-.24-.564h-1.284l-.24.564h-.721c-.293 0-.676-.068-.902-.286-.202-.217-.315-.518-.315-.976.008-.383.06-.728.338-1.006.18-.203.518-.3.939-.3h.585v.555h-.585c-.218 0-.353.038-.481.143-.113.113-.165.315-.165.586 0 .277.045.48.165.615.083.083.255.128.42.128h.278l.879-2.02h.908l1.037 2.425V8.064h.946l1.088 1.772v-1.78h.631v2.569zm-7.276-2.568h-.623v2.568h.623V8.057zm-1.306.112c-.203-.112-.42-.112-.736-.112H9.581v2.568h.6v-.931h.661c.218 0 .36.022.458.105.105.135.083.353.083.495v.323h.63v-.51c0-.218-.022-.338-.112-.459-.06-.075-.165-.165-.293-.217.173-.075.443-.278.443-.684 0-.285-.127-.45-.33-.578M9.138 10.1H7.704v-.518h1.419v-.526h-1.42v-.458h1.435v-.533h-2.05v2.568h2.057V10.1h-.007zM6.63 8.057H5.624l-.758 1.742-.804-1.742h-.984v2.425l-1.05-2.425h-.91L.024 10.625h.653l.233-.564H2.2l.233.564h1.246V8.612l.901 2.013h.526l.9-2.013v2.013h.624V8.057zm9.934 1.456l-.42-1.013-.421 1.013h.84zM11.248 9.1c-.098.06-.18.06-.308.06h-.758v-.563h.758c.105 0 .233 0 .308.038.075.045.112.127.112.24 0 .105-.037.195-.112.225m-10.122.413L1.554 8.5l.42 1.013h-.848zM21.85 0H0v9.258l.743-1.704h1.6l.217.42v-.42h1.87l.42.908.413-.908h5.947c.278 0 .518.045.699.202v-.202h1.636v.202c.27-.15.624-.202 1.022-.202h2.365l.217.42v-.42h1.742l.256.42v-.42h1.704v3.596h-1.72l-.337-.548v.548h-2.14l-.24-.585h-.526l-.24.585h-1.119c-.443 0-.766-.105-.984-.218v.218h-2.658v-.826c0-.112-.022-.135-.097-.135h-.083v.961H5.564v-.458l-.18.458H4.302l-.18-.443v.443H2.05l-.218-.585h-.526l-.24.585H0V22h21.85v-6.585c-.233.105-.563.165-.886.165h-1.6v-.218c-.18.143-.518.218-.825.218h-5.024v-.826c0-.112-.022-.112-.112-.112h-.083v.938h-1.652v-.976c-.278.135-.585.135-.863.135h-.18v.841h-2.02l-.48-.555-.526.555H4.362v-3.604H7.66l.465.556.518-.556h2.215c.256 0 .676.038.864.218v-.218h1.982c.203 0 .586.038.841.218v-.218h2.98v.218c.174-.143.481-.218.76-.218h1.666v.218c.18-.128.443-.218.774-.218h1.126V0z" opacity=".495"/>
</svg>
