<svg xmlns="http://www.w3.org/2000/svg" width="23" height="20" viewBox="0 0 23 20">
    <g fill="none" fill-rule="evenodd" stroke="#98989F">
        <path stroke-width=".75" d="M6.674 5.304h9.348c1.312 0 2.375 1.063 2.375 2.375v5.866c0 1.312-1.063 2.375-2.375 2.375H6.674c-1.312 0-2.375-1.063-2.375-2.375V7.68c0-1.312 1.063-2.375 2.375-2.375z"/>
        <path fill="#98989F" stroke-width=".75" d="M4.674 9.536L18.022 9.536 18.022 11.386 4.674 11.386z"/>
        <path fill="#98989F" stroke-width=".5" d="M1.46 1.448L5.219 1.448 5.219.857.86.857.86 5.154 1.46 5.154zM17.477.857L17.477 1.448 21.236 1.448 21.236 5.154 21.836 5.154 21.836.857zM1.46 15.139L.86 15.139.86 19.435 5.219 19.435 5.219 18.844 1.46 18.844zM21.236 18.844L17.477 18.844 17.477 19.435 21.836 19.435 21.836 15.139 21.236 15.139z"/>
    </g>
</svg>
