<svg xmlns="http://www.w3.org/2000/svg" width="30" height="11" viewBox="0 0 30 11">
    <g fill="#1A1F71" fill-rule="evenodd" opacity=".5">
        <path d="M24.551 6.084l.01-.037.013-.024.012-.035.011-.035.013-.025.012-.035.012-.036.011-.036.013-.023.012-.035.01-.036.013-.025.012-.035.013-.035.01-.036.014-.025.01-.034.011-.037.013-.022.012-.037.013-.035.012-.036.01-.024.012-.036.013-.034.012-.024.012-.037.012-.036.01-.035.012-.024.012-.035.013-.035.011-.025.013-.036.012-.035.012-.035.012-.025.01-.035.014-.036.011-.024.012-.036.011-.035.013-.035.012-.024.012-.036.012-.036.01-.035.013-.024.01-.036.013-.035.012-.024.013-.035.012-.035.01-.037.011-.023.014-.036.011-.034.013-.026.012-.036.012-.035.01-.035.012-.024.013-.036.01-.036.013-.023.012-.036.013-.036.011-.035.011-.024.013-.036.012-.035.01-.037.014-.024.011-.034.012-.036.013-.025.012-.035.01-.035.012-.036.013-.035.012-.036.012-.024.011-.036.012-.035.012-.035.01-.025.015-.035.012-.036.012-.036.012-.024.01-.035.013-.035.01-.036.013-.024.012-.036.013-.035.012-.023.01-.037.013-.036.011-.035.011-.036.012-.024.012-.035.014-.036v.071l.01.048.014.06.01.06.012.058.013.06.012.06.012.059.011.06.012.058.012.06.01.059.013.06.012.058.012.06.013.048.011.06.011.059.012.059.014.06.011.058.01.049.015.059.01.06.012.059.012.06.012.047.012.06.01.059.015.058.01.061.012.058.012.049.012.058.012.061.013.058.011.06.011.06.013.046.012.06.01.06.013.059.011.049.011.059.015.058.012.06.011.059.012.06.012.06.01.047.012.058.013.06.012.06.012.06.011.06.012.048.013.057.01.06.013.06h-1.939l.015-.035zM25.3.201l-.071.012-.059.012-.048.011-.035.011-.037.013-.034.012-.036.012-.023.012-.025.011-.025.013-.022.011-.023.013-.025.013-.013.01-.022.012-.012.012-.025.012-.011.012-.011.012-.024.012-.013.012-.012.01-.012.013-.011.013-.012.01-.012.013-.012.01-.012.013-.012.013-.012.012-.012.01-.012.013-.012.012-.01.023-.013.013-.012.012-.01.023-.013.013-.011.022-.013.013-.01.023-.014.013-.014.023-.011.024-.012.024-.01.023-.013.025-.012.024-.013.023-.01.024-.012.035-.013.023-.01.037-.012.024-.013.022-.01.037-.014.024-.012.024-.012.034-.012.024-.011.037-.014.023-.01.024-.012.035-.01.025-.014.035-.012.023-.01.024-.015.036-.01.024-.01.035-.013.025-.013.024-.012.035-.012.023-.013.035-.011.025-.01.023-.014.036-.01.023-.013.024-.012.036-.012.023-.012.036-.01.025-.013.023-.012.036-.012.024-.012.036-.011.023-.015.024-.009.035-.013.024-.011.036-.011.023-.013.025-.012.035-.012.024-.01.024-.013.035-.013.024-.011.036-.013.023-.01.024-.015.036-.012.023-.01.036-.011.024-.013.024-.012.035-.01.025-.013.035-.013.024-.01.023-.013.036-.011.024-.012.024-.012.035-.013.024-.012.036-.01.024-.015.023-.01.036-.01.024-.013.035-.011.024-.014.024-.01.037-.012.023-.013.036-.011.023-.014.024-.01.035-.013.024-.012.036-.012.023-.012.023-.01.037-.012.023-.012.025-.012.034-.012.025-.013.036-.011.023-.012.023-.013.036-.012.025-.01.034-.012.024-.013.025-.011.035-.012.023-.013.037-.012.024-.01.023-.012.035-.013.024-.012.024-.013.035-.01.025-.012.035-.012.024-.012.024-.012.035-.013.024-.013.037-.01.022-.011.024-.012.037-.012.022-.013.036-.012.024-.012.024-.01.035-.013.024-.012.025-.012.034-.012.024-.01.037-.012.023-.014.036-.012.023-.012.025-.012.035-.01.024-.01.023-.014.036-.014.024-.01.035-.012.025-.01.023-.013.035-.013.025-.012.034-.013.026-.009.023-.014.035-.012.024-.01.035-.014.024-.01.024-.011.036-.015.024-.012.023-.012.036-.011.023-.012.036-.01.024-.012.024-.014.036-.01.023-.015.036-.01.023-.01.025-.013.036-.011.022-.013.025-.013.035-.011.023-.012.036-.011.025-.012.023-.013.035-.012.024-.01.037-.013.024-.012.023-.011.035-.013.024-.011.035-.012.026-.013.022-.01.037-.014.023-.011.034-.013.025-.01.023-.011.035-.013.026-.013.023-.01.035-.012.025-.014.035-.011.024-.011.024-.012.035-.012.024-.013.036-.011.024-.013.023-.011.036-.01.024-.014.035-.01.023-.015.025-.012.035-.01.023-.013.037-.01.024-.012.023-.013.035-.013.025-.012.024-.01.035-.013.024-.01.036-.013.024-.012.022-.01.036-.013.025-.012.034-.012.026-.011.023-.013.035-.013.025-.011.034-.012.025-.013.023-.011.036-.012.024-.01.024-.013.035-.012.023-.012.036-.012.025-.012.023-.012.036-.01.023-.012.037-.015.023-.01.023-.012.036-.011.024-.013.025-.012.033-.012.025-.013.035-.01.024-.011.025-.013.036-.012.023-.012.035-.012.024-.012.024-.012.035-.01.024-.015.035-.012.025-.012.023-.01.036-.012.025-.011.034-.014.025-.012.022-.011.037-.012.023-.01.037-.013.023-.013.024-.01.035-.014.023-.011.024-.011.035-.013.025-.01.037-.015.023-.01.023-.011.036-.01.024-.015.037-.012.022-.01.024-.013.036-.011.024-.014.034-.01.025-.013.025-.012.034-.012.025-.012.023-.012.035-.01.024-.013.036-.011.025-.012.023-.013.035-.012.023v.037h2.507l.012-.012.012-.036.013-.035.01-.035.014-.025.01-.036.014-.036.012-.035.01-.036.014-.022.01-.037.013-.035.012-.035.01-.036.013-.024.01-.035.013-.037.013-.036.012-.024.012-.035.011-.036.012-.037.011-.022.013-.036.014-.035.01-.035.01-.036.014-.026.011-.034.01-.036.013-.035.014-.024.01-.035.013-.036.012-.036.012-.025.014-.035.01-.035.011-.035.012-.025.013-.035.01-.035v-.025l3.031.012.013.06.01.048.012.058.013.06.013.048.01.06.013.058.011.048.012.06.011.058.011.06.012.06.013.048.012.06.012.057.013.06.012.048.013.07.01.05.011.058.012.059.012.06.012.048.01.058.014.025h2.21v-.083l-.012-.06-.011-.06-.012-.058-.01-.047-.013-.062-.013-.058-.011-.047-.014-.061-.011-.058-.013-.06-.009-.061-.013-.046-.013-.06-.012-.058-.012-.06-.01-.06-.012-.047-.014-.06-.01-.06-.013-.059-.01-.059-.011-.047-.013-.06-.013-.06-.013-.06-.01-.046-.014-.06-.01-.058-.013-.06-.011-.059-.011-.05-.013-.058-.011-.058-.013-.06-.01-.059-.013-.048-.012-.06-.012-.06-.012-.046-.01-.06-.014-.059-.012-.06-.011-.059-.011-.06-.013-.046-.012-.06-.013-.06-.01-.06-.014-.059-.009-.048-.013-.06-.013-.058-.01-.047-.013-.061-.012-.06-.013-.057-.011-.06-.013-.048-.012-.06-.011-.058-.01-.06-.013-.059-.012-.049-.012-.059-.013-.058-.01-.06-.013-.06-.012-.047-.012-.06-.01-.059-.014-.06-.012-.047-.01-.06-.013-.059-.012-.058-.012-.06-.011-.048-.015-.06-.009-.059-.012-.06-.014-.058-.01-.048-.012-.06-.011-.06-.013-.047-.01-.059-.014-.06-.012-.058-.011-.06-.012-.048-.013-.06-.011-.059-.011-.06-.012-.058-.014-.049-.01-.058-.014-.06-.01-.06-.012-.058-.013-.048-.01-.06-.012-.06-.013-.059-.013-.047-.01-.059-.012-.06-.012-.059-.01-.06-.013-.047-.014-.06-.011-.059-.012-.059-.01-.06-.012-.047-.013-.06-.012-.06-.012-.046-.012-.06-.013-.06-.01-.059-.012-.06-.012-.059-.013-.047-.012-.06-.01-.06-.013-.059-.011-.059-.013-.047-.012-.06-.01-.06-.014-.047-.011-.06-.011-.058-.013-.06-.012-.06-.012-.048-.01-.059-.014-.059-.012-.06-.01-.058-.013-.048-.012-.06-.011-.06-.011-.058-.014-.06-.012-.06-.01-.047-.013-.059-.012-.059-.012-.048-.012-.06-.01-.059-.016-.06-.01-.059-.012-.048-.013-.06-.01-.058-.012-.059-.011-.06-.012-.048-.011-.047h-2.045L25.3.2zM18.691.034L18.563.045 18.455.058 18.36.07 18.288.082 18.218.094 18.145.107 18.086.116 18.026.129 17.968.141 17.919.154 17.861.165 17.814.177 17.766.188 17.731.201 17.682.213 17.634.225 17.6.236 17.565.247 17.527.26 17.493.272 17.444.284 17.41.296 17.386.308 17.349.32 17.313.331 17.29.344 17.254.357 17.219.368 17.194.379 17.159.391 17.135.403 17.111.415 17.076.427 17.053.439 17.029.451 17.004.462 16.981.474 16.957.487 16.922.498 16.899.51 16.875.521 16.863.533 16.839.546 16.815.558 16.791.569 16.766.581 16.743.593 16.72.605 16.707.617 16.684.629 16.659.641 16.648.651 16.624.664 16.601.677 16.589.688 16.564.699 16.541.712 16.529.724 16.517.735 16.494.748 16.482.76 16.457.771 16.445.783 16.423.795 16.412.807 16.387.819 16.376.831 16.363.842 16.339.855 16.33.867 16.315.877 16.291.891 16.279.902 16.268.914 16.256.926 16.233.938 16.219.95 16.21.962 16.197.973 16.185.985 16.16.996 16.149 1.009 16.138 1.021 16.126 1.033 16.115 1.044 16.102 1.057 16.09 1.067 16.077 1.079 16.067 1.091 16.055 1.104 16.031 1.116 16.019 1.128 16.006 1.14 15.995 1.151 15.983 1.164 15.97 1.175 15.959 1.198 15.947 1.211 15.934 1.222 15.924 1.234 15.912 1.247 15.9 1.259 15.888 1.27 15.875 1.282 15.865 1.295 15.852 1.306 15.84 1.318 15.829 1.341 15.817 1.354 15.805 1.366 15.792 1.378 15.781 1.401 15.768 1.413 15.757 1.424 15.746 1.436 15.732 1.461 15.723 1.472 15.71 1.484 15.698 1.508 15.687 1.519 15.673 1.532 15.663 1.556 15.65 1.568 15.638 1.592 15.627 1.602 15.614 1.627 15.602 1.638 15.589 1.663 15.58 1.685 15.567 1.698 15.555 1.722 15.543 1.746 15.53 1.77 15.521 1.782 15.508 1.806 15.494 1.828 15.485 1.852 15.472 1.876 15.459 1.9 15.448 1.924 15.437 1.947 15.426 1.972 15.413 2.007 15.401 2.03 15.388 2.055 15.377 2.09 15.365 2.114 15.353 2.15 15.342 2.185 15.33 2.22 15.319 2.257 15.306 2.292 15.294 2.328 15.282 2.375 15.269 2.423 15.259 2.47 15.247 2.529 15.234 2.59 15.221 2.661 15.21 2.744 15.199 2.863 15.199 3.279 15.21 3.385 15.221 3.457 15.234 3.516 15.247 3.564 15.259 3.611 15.269 3.659 15.282 3.695 15.294 3.729 15.306 3.766 15.319 3.801 15.33 3.825 15.342 3.861 15.353 3.885 15.365 3.92 15.377 3.943 15.388 3.968 15.401 3.992 15.413 4.015 15.426 4.038 15.437 4.063 15.448 4.087 15.459 4.098 15.472 4.122 15.485 4.146 15.494 4.158 15.508 4.181 15.521 4.205 15.53 4.217 15.543 4.243 15.555 4.253 15.567 4.277 15.58 4.288 15.589 4.301 15.602 4.325 15.614 4.336 15.627 4.347 15.638 4.373 15.65 4.384 15.663 4.396 15.673 4.419 15.687 4.431 15.698 4.443 15.71 4.454 15.723 4.467 15.732 4.49 15.746 4.502 15.757 4.515 15.768 4.527 15.781 4.538 15.792 4.549 15.805 4.562 15.817 4.573 15.829 4.585 15.84 4.597 15.852 4.61 15.865 4.622 15.875 4.633 15.888 4.646 15.9 4.658 15.912 4.669 15.924 4.68 15.934 4.693 15.947 4.705 15.959 4.717 15.97 4.728 15.983 4.741 15.995 4.752 16.006 4.763 16.019 4.776 16.031 4.789 16.055 4.799 16.067 4.811 16.077 4.823 16.09 4.835 16.102 4.847 16.115 4.859 16.138 4.871 16.149 4.883 16.16 4.895 16.175 4.906 16.197 4.919 16.21 4.931 16.219 4.943 16.233 4.954 16.256 4.965 16.268 4.977 16.279 4.989 16.301 5.002 16.315 5.013 16.33 5.025 16.352 5.036 16.363 5.05 16.387 5.062 16.398 5.072 16.423 5.086 16.435 5.096 16.445 5.108 16.469 5.12 16.482 5.132 16.506 5.144 16.517 5.156 16.541 5.168 16.564 5.179 16.578 5.193 16.601 5.203 16.613 5.215 16.636 5.227 16.659 5.239 16.673 5.252 16.696 5.263 16.707 5.276 16.732 5.287 16.755 5.298 16.78 5.31 16.791 5.322 16.815 5.334 16.839 5.346 16.863 5.359 16.875 5.37 16.899 5.382 16.922 5.393 16.945 5.406 16.969 5.417 16.992 5.429 17.004 5.441 17.029 5.453 17.053 5.465 17.076 5.478 17.099 5.49 17.125 5.5 17.147 5.512 17.17 5.524 17.194 5.537 17.219 5.548 17.244 5.561 17.267 5.571 17.29 5.584 17.313 5.596 17.337 5.607 17.361 5.62 17.386 5.632 17.41 5.643 17.432 5.654 17.457 5.667 17.481 5.679 17.504 5.691 17.527 5.702 17.552 5.714 17.576 5.727 17.6 5.738 17.611 5.749 17.634 5.763 17.659 5.774 17.682 5.786 17.707 5.798 17.731 5.809 17.741 5.821 17.766 5.835 17.789 5.845 17.814 5.857 17.825 5.869 17.85 5.88 17.872 5.893 17.885 5.904 17.908 5.917 17.932 5.928 17.943 5.942 17.968 5.953 17.979 5.964 18.001 5.976 18.017 5.988 18.037 5.999 18.052 6.012 18.073 6.023 18.086 6.036 18.1 6.047 18.122 6.058 18.134 6.07 18.145 6.084 18.155 6.095 18.181 6.106 18.193 6.119 18.205 6.13 18.218 6.143 18.228 6.155 18.241 6.167 18.254 6.179 18.278 6.189 18.288 6.201 18.299 6.226 18.311 6.237 18.324 6.249 18.336 6.26 18.347 6.272 18.36 6.283 18.371 6.31 18.383 6.322 18.395 6.332 18.407 6.356 18.42 6.381 18.431 6.393 18.442 6.415 18.455 6.451 18.466 6.475 18.479 6.51 18.489 6.559 18.502 6.629 18.502 6.773 18.489 6.855 18.479 6.903 18.466 6.938 18.455 6.962 18.442 6.999 18.431 7.022 18.42 7.046 18.407 7.058 18.395 7.082 18.383 7.093 18.371 7.117 18.36 7.128 18.347 7.141 18.336 7.164 18.324 7.176 18.311 7.188 18.299 7.2 18.288 7.21 18.278 7.223 18.264 7.235 18.254 7.249 18.228 7.26 18.218 7.271 18.205 7.283 18.193 7.295 18.169 7.307 18.155 7.318 18.134 7.332 18.111 7.342 18.1 7.353 18.073 7.366 18.052 7.379 18.026 7.391 18.017 7.401 17.979 7.414 17.954 7.426 17.932 7.438 17.908 7.45 17.872 7.462 17.837 7.474 17.8 7.485 17.766 7.497 17.731 7.509 17.682 7.521 17.634 7.533 17.587 7.544 17.515 7.556 17.444 7.567 17.349 7.58 17.182 7.591 16.934 7.591 16.648 7.58 16.482 7.567 16.376 7.556 16.268 7.544 16.185 7.533 16.115 7.521 16.055 7.509 15.995 7.497 15.934 7.485 15.888 7.474 15.829 7.462 15.792 7.45 15.746 7.438 15.698 7.426 15.663 7.414 15.627 7.401 15.58 7.391 15.543 7.379 15.508 7.366 15.472 7.353 15.437 7.342 15.413 7.332 15.377 7.318 15.342 7.307 15.306 7.295 15.282 7.283 15.247 7.271 15.221 7.26 15.187 7.249 15.15 7.235 15.127 7.223 15.104 7.21 15.068 7.2 15.044 7.188 15.007 7.176 14.985 7.164 14.961 7.152 14.925 7.141 14.902 7.128 14.879 7.117 14.854 7.106 14.832 7.093 14.796 7.082 14.771 7.07 14.746 7.058 14.723 7.046 14.701 7.033 14.676 7.022 14.652 7.011 14.63 6.999 14.606 6.987 14.579 6.974 14.545 6.974 14.533 7.011 14.521 7.082 14.51 7.152 14.498 7.223 14.486 7.307 14.474 7.379 14.462 7.45 14.451 7.521 14.438 7.606 14.428 7.675 14.415 7.746 14.403 7.818 14.389 7.889 14.378 7.972 14.368 8.044 14.356 8.115 14.344 8.186 14.332 8.257 14.319 8.329 14.306 8.412 14.295 8.484 14.285 8.555 14.273 8.627 14.26 8.696 14.249 8.768 14.234 8.852 14.225 8.923 14.212 8.996 14.212 9.053 14.249 9.065 14.273 9.079 14.295 9.09 14.332 9.103 14.356 9.114 14.389 9.124 14.415 9.137 14.451 9.15 14.486 9.161 14.521 9.172 14.545 9.184 14.592 9.196 14.63 9.208 14.663 9.22 14.701 9.231 14.735 9.242 14.782 9.255 14.819 9.267 14.865 9.28 14.913 9.292 14.961 9.304 15.007 9.316 15.055 9.328 15.104 9.34 15.163 9.35 15.21 9.363 15.269 9.374 15.33 9.386 15.388 9.399 15.448 9.411 15.521 9.422 15.589 9.433 15.673 9.447 15.746 9.458 15.829 9.47 15.924 9.482 16.031 9.492 16.138 9.505 16.279 9.517 16.457 9.53 17.337 9.53 17.493 9.517 17.621 9.505 17.731 9.492 17.814 9.482 17.896 9.47 17.968 9.458 18.026 9.447 18.1 9.433 18.155 9.422 18.218 9.411 18.264 9.399 18.324 9.386 18.371 9.374 18.42 9.363 18.466 9.35 18.514 9.34 18.549 9.328 18.598 9.316 18.633 9.304 18.667 9.292 18.703 9.28 18.74 9.267 18.774 9.255 18.811 9.242 18.846 9.231 18.881 9.22 18.907 9.208 18.943 9.196 18.976 9.184 19.002 9.172 19.037 9.161 19.059 9.15 19.084 9.137 19.119 9.124 19.144 9.114 19.168 9.103 19.192 9.09 19.227 9.079 19.251 9.065 19.274 9.053 19.297 9.041 19.322 9.03 19.347 9.019 19.37 9.006 19.392 8.996 19.417 8.983 19.43 8.971 19.454 8.959 19.476 8.947 19.5 8.935 19.511 8.923 19.537 8.912 19.559 8.901 19.582 8.887 19.593 8.874 19.62 8.863 19.632 8.852 19.656 8.839 19.666 8.827 19.692 8.817 19.715 8.804 19.725 8.791 19.737 8.78 19.761 8.768 19.773 8.757 19.798 8.745 19.809 8.733 19.821 8.721 19.844 8.71 19.856 8.696 19.881 8.686 19.892 8.674 19.903 8.661 19.917 8.649 19.939 8.637 19.951 8.627 19.965 8.614 19.977 8.602 19.999 8.59 20.012 8.579 20.023 8.567 20.035 8.555 20.047 8.544 20.06 8.532 20.07 8.518 20.095 8.506 20.105 8.495 20.119 8.484 20.129 8.471 20.142 8.46 20.154 8.448 20.165 8.435 20.179 8.424 20.189 8.412 20.201 8.4 20.213 8.388 20.224 8.377 20.236 8.365 20.25 8.354 20.263 8.341 20.272 8.329 20.284 8.317 20.296 8.293 20.308 8.282 20.321 8.27 20.332 8.257 20.345 8.245 20.356 8.234 20.367 8.222 20.38 8.198 20.391 8.186 20.403 8.174 20.416 8.162 20.428 8.139 20.44 8.127 20.451 8.115 20.464 8.103 20.474 8.08 20.486 8.068 20.499 8.044 20.51 8.032 20.522 8.019 20.534 7.996 20.545 7.984 20.557 7.96 20.569 7.949 20.581 7.925 20.593 7.913 20.605 7.889 20.616 7.867 20.63 7.854 20.642 7.83 20.653 7.807 20.666 7.781 20.676 7.769 20.689 7.746 20.702 7.723 20.712 7.699 20.726 7.675 20.736 7.652 20.748 7.627 20.759 7.606 20.772 7.567 20.785 7.544 20.796 7.521 20.807 7.485 20.819 7.462 20.831 7.426 20.843 7.401 20.856 7.366 20.868 7.332 20.879 7.295 20.891 7.26 20.902 7.223 20.914 7.176 20.926 7.128 20.938 7.082 20.95 7.033 20.962 6.974 20.973 6.915 20.986 6.843 20.997 6.76 21.01 6.653 21.021 6.427 21.021 6.298 21.01 6.106 20.997 6.012 20.986 5.942 20.973 5.88 20.962 5.835 20.95 5.786 20.938 5.738 20.926 5.702 20.914 5.667 20.902 5.632 20.891 5.596 20.879 5.561 20.868 5.537 20.856 5.5 20.843 5.478 20.831 5.453 20.819 5.429 20.807 5.406 20.796 5.382 20.785 5.359 20.772 5.334 20.759 5.31 20.748 5.287 20.736 5.263 20.726 5.252 20.712 5.227 20.702 5.203 20.689 5.193 20.676 5.168 20.666 5.156 20.653 5.132 20.642 5.12 20.63 5.096 20.616 5.086 20.605 5.072 20.593 5.05 20.581 5.036 20.569 5.013 20.557 5.002 20.545 4.989 20.534 4.977 20.522 4.954 20.51 4.943 20.499 4.931 20.486 4.919 20.474 4.906 20.464 4.895 20.451 4.871 20.44 4.859 20.428 4.847 20.416 4.835 20.403 4.823 20.391 4.811 20.38 4.799 20.367 4.789 20.356 4.776 20.345 4.763 20.332 4.752 20.321 4.741 20.308 4.728 20.296 4.717 20.284 4.705 20.272 4.693 20.263 4.68 20.25 4.669 20.236 4.658 20.224 4.646 20.213 4.633 20.189 4.622 20.179 4.61 20.165 4.597 20.154 4.585 20.142 4.573 20.129 4.562 20.119 4.549 20.095 4.538 20.083 4.527 20.07 4.515 20.06 4.502 20.035 4.49 20.023 4.479 20.012 4.467 19.999 4.454 19.977 4.443 19.965 4.431 19.951 4.419 19.926 4.408 19.917 4.396 19.892 4.384 19.881 4.373 19.869 4.36 19.844 4.347 19.834 4.336 19.809 4.325 19.798 4.313 19.773 4.301 19.761 4.288 19.737 4.277 19.725 4.265 19.703 4.253 19.692 4.243 19.666 4.229 19.656 4.217 19.632 4.205 19.62 4.194 19.593 4.181 19.572 4.17 19.559 4.158 19.537 4.146 19.511 4.134 19.5 4.122 19.476 4.111 19.454 4.098 19.43 4.087 19.406 4.075 19.392 4.063 19.37 4.051 19.347 4.038 19.322 4.026 19.297 4.015 19.287 4.003 19.262 3.992 19.238 3.98 19.215 3.968 19.192 3.956 19.168 3.943 19.144 3.932 19.119 3.92 19.096 3.908 19.073 3.897 19.048 3.885 19.025 3.873 19.002 3.861 18.976 3.848 18.955 3.837 18.929 3.825 18.907 3.813 18.881 3.801 18.859 3.79 18.835 3.778 18.811 3.766 18.787 3.754 18.764 3.742 18.74 3.729 18.728 3.718 18.703 3.707 18.68 3.695 18.656 3.682 18.633 3.671 18.609 3.659 18.585 3.647 18.574 3.634 18.549 3.625 18.526 3.611 18.502 3.599 18.479 3.588 18.466 3.576 18.442 3.564 18.42 3.552 18.395 3.539 18.383 3.528 18.36 3.516 18.336 3.504 18.324 3.493 18.299 3.481 18.278 3.468 18.264 3.457 18.241 3.445 18.228 3.433 18.205 3.421 18.181 3.409 18.169 3.397 18.145 3.385 18.134 3.374 18.122 3.362 18.1 3.35 18.086 3.338 18.063 3.327 18.052 3.314 18.037 3.302 18.026 3.291 18.001 3.279 17.991 3.267 17.979 3.255 17.968 3.243 17.943 3.231 17.932 3.22 17.919 3.207 17.908 3.194 17.896 3.184 17.885 3.171 17.872 3.161 17.861 3.148 17.85 3.136 17.837 3.112 17.825 3.101 17.814 3.089 17.8 3.065 17.789 3.053 17.777 3.029 17.766 3.017 17.754 2.993 17.741 2.97 17.731 2.947 17.718 2.91 17.707 2.874 17.692 2.803 17.692 2.685 17.707 2.625 17.718 2.577 17.731 2.542 17.741 2.519 17.754 2.494 17.766 2.47 17.777 2.459 17.789 2.435 17.8 2.412 17.814 2.399 17.825 2.387 17.837 2.375 17.85 2.351 17.861 2.34 17.872 2.328 17.885 2.317 17.896 2.304 17.908 2.292 17.932 2.281 17.943 2.268 17.954 2.257 17.968 2.245 17.991 2.232 18.001 2.22 18.026 2.21 18.037 2.197 18.063 2.185 18.086 2.173 18.1 2.161 18.122 2.15 18.145 2.137 18.169 2.126 18.205 2.114 18.228 2.102 18.254 2.09 18.288 2.078 18.324 2.066 18.36 2.055 18.407 2.042 18.442 2.03 18.502 2.019 18.549 2.007 18.622 1.995 18.717 1.983 18.835 1.972 19.379 1.972 19.537 1.983 19.643 1.995 19.737 2.007 19.821 2.019 19.881 2.03 19.939 2.042 19.999 2.055 20.047 2.066 20.105 2.078 20.154 2.09 20.201 2.102 20.236 2.114 20.284 2.126 20.321 2.137 20.367 2.15 20.403 2.161 20.44 2.173 20.474 2.185 20.51 2.197 20.534 2.21 20.569 2.22 20.605 2.232 20.642 2.245 20.666 2.257 20.702 2.268 20.726 2.281 20.759 2.292 20.785 2.304 20.807 2.317 20.831 2.328 20.856 2.34 20.879 2.351 20.914 2.363 20.938 2.375 20.962 2.387 20.986 2.399 21.01 2.412 21.047 2.412 21.058 2.34 21.069 2.268 21.079 2.197 21.094 2.114 21.104 2.042 21.117 1.972 21.128 1.9 21.139 1.828 21.152 1.757 21.163 1.675 21.176 1.602 21.189 1.532 21.199 1.461 21.211 1.39 21.222 1.318 21.234 1.234 21.248 1.164 21.259 1.079 21.271 1.009 21.281.938 21.293.867 21.305.795 21.32.724 21.33.641 21.342.569 21.354.498 21.366.427 21.366.403 21.342.391 21.305.379 21.271.368 21.248.357 21.211.344 21.176.331 21.139.32 21.104.308 21.069.296 21.033.284 20.997.272 20.95.26 20.914.247 20.879.236 20.831.225 20.785.213 20.736.201 20.689.188 20.642.177 20.593.165 20.545.154 20.486.141 20.428.129 20.367.116 20.296.107 20.236.094 20.154.082 20.083.07 19.987.058 19.881.045 19.75.034 19.582.022 18.859.022zM11.823.201L11.811.272 11.8.344 11.789.415 11.776.487 11.764.569 11.753.641 11.739.712 11.728.783 11.717.855 11.705.926 11.694 1.009 11.681 1.079 11.669 1.151 11.659 1.222 11.646 1.306 11.633 1.378 11.621 1.448 11.608 1.519 11.598 1.602 11.586 1.675 11.576 1.746 11.563 1.816 11.551 1.888 11.538 1.959 11.525 2.042 11.515 2.114 11.503 2.185 11.493 2.257 11.479 2.328 11.467 2.399 11.454 2.483 11.443 2.554 11.433 2.625 11.42 2.696 11.409 2.767 11.396 2.839 11.385 2.922 11.373 2.993 11.36 3.065 11.349 3.136 11.337 3.22 11.326 3.291 11.313 3.362 11.301 3.433 11.289 3.516 11.277 3.588 11.265 3.659 11.253 3.729 11.241 3.801 11.23 3.873 11.219 3.956 11.205 4.026 11.195 4.098 11.183 4.17 11.17 4.243 11.158 4.313 11.147 4.396 11.133 4.467 11.122 4.538 11.111 4.61 11.098 4.68 11.087 4.752 11.075 4.835 11.063 4.906 11.051 4.977 11.04 5.05 11.029 5.12 11.016 5.203 11.004 5.276 10.992 5.346 10.981 5.429 10.968 5.5 10.957 5.571 10.946 5.643 10.932 5.714 10.919 5.786 10.908 5.869 10.897 5.942 10.886 6.012 10.874 6.084 10.863 6.155 10.851 6.226 10.837 6.31 10.827 6.381 10.813 6.451 10.802 6.523 10.79 6.594 10.776 6.665 10.766 6.748 10.753 6.819 10.743 6.891 10.73 6.962 10.719 7.033 10.707 7.117 10.694 7.188 10.684 7.26 10.672 7.342 10.659 7.414 10.648 7.485 10.636 7.556 10.623 7.627 10.611 7.699 10.6 7.781 10.588 7.854 10.575 7.925 10.565 7.996 10.551 8.068 10.54 8.139 10.528 8.222 10.516 8.293 10.507 8.365 10.493 8.435 10.483 8.506 10.47 8.579 10.458 8.661 10.445 8.733 10.434 8.804 10.421 8.874 10.409 8.947 10.396 9.03 10.385 9.103 10.372 9.172 10.363 9.255 10.351 9.328 10.351 9.399 12.739 9.399 12.751 9.35 12.763 9.28 12.775 9.208 12.787 9.137 12.798 9.065 12.809 8.996 12.821 8.912 12.833 8.839 12.846 8.768 12.858 8.696 12.871 8.627 12.882 8.555 12.894 8.471 12.907 8.4 12.918 8.329 12.93 8.257 12.941 8.186 12.953 8.115 12.963 8.032 12.976 7.96 12.989 7.889 13.001 7.818 13.012 7.746 13.024 7.663 13.036 7.591 13.049 7.521 13.06 7.438 13.072 7.366 13.082 7.295 13.096 7.223 13.106 7.152 13.12 7.082 13.132 6.999 13.142 6.927 13.155 6.855 13.164 6.785 13.177 6.713 13.191 6.641 13.202 6.559 13.216 6.486 13.225 6.415 13.237 6.345 13.25 6.272 13.262 6.201 13.276 6.119 13.286 6.047 13.298 5.976 13.308 5.904 13.319 5.835 13.334 5.749 13.344 5.679 13.358 5.607 13.368 5.524 13.38 5.453 13.392 5.382 13.406 5.31 13.417 5.239 13.428 5.168 13.44 5.086 13.451 5.013 13.463 4.943 13.477 4.871 13.488 4.799 13.499 4.728 13.51 4.658 13.522 4.573 13.536 4.502 13.546 4.431 13.558 4.36 13.57 4.288 13.583 4.217 13.594 4.134 13.607 4.063 13.619 3.992 13.631 3.92 13.642 3.848 13.653 3.766 13.665 3.695 13.678 3.625 13.689 3.539 13.701 3.468 13.712 3.397 13.726 3.327 13.738 3.255 13.75 3.171 13.762 3.101 13.772 3.029 13.785 2.958 13.799 2.886 13.809 2.815 13.821 2.744 13.831 2.661 13.845 2.59 13.855 2.519 13.868 2.446 13.88 2.375 13.892 2.304 13.902 2.22 13.915 2.15 13.927 2.078 13.94 2.007 13.952 1.936 13.964 1.852 13.975 1.782 13.987 1.711 13.998 1.627 14.01 1.556 14.023 1.484 14.032 1.413 14.045 1.341 14.057 1.259 14.07 1.188 14.083 1.116 14.094 1.044 14.106.973 14.117.902 14.129.831 14.14.748 14.152.677 14.166.605 14.177.533 14.188.462 14.201.391 14.212.308 14.225.236 14.225.177 11.837.177zM8.355.188L8.342.201 8.33.236 8.318.26 8.306.296 8.295.331 8.282.357 8.271.391 8.259.427 8.246.451 8.236.487 8.223.521 8.213.558 8.199.581 8.187.617 8.177.651 8.163.677 8.153.712 8.139.748 8.128.771 8.117.807 8.104.842 8.094.867 8.08.902 8.069.938 8.058.973 8.046.996 8.033 1.033 8.022 1.067 8.009 1.091 7.997 1.128 7.985 1.164 7.973 1.198 7.961 1.222 7.95 1.259 7.938 1.295 7.927 1.318 7.915 1.354 7.903 1.39 7.892 1.413 7.878 1.448 7.868 1.484 7.854 1.508 7.842 1.543 7.831 1.58 7.82 1.614 7.809 1.638 7.795 1.675 7.783 1.711 7.771 1.733 7.759 1.77 7.749 1.806 7.737 1.828 7.726 1.865 7.712 1.9 7.7 1.936 7.688 1.959 7.676 1.995 7.666 2.03 7.652 2.055 7.64 2.09 7.629 2.126 7.616 2.15 7.605 2.185 7.594 2.22 7.583 2.257 7.571 2.281 7.558 2.317 7.547 2.351 7.535 2.375 7.522 2.412 7.511 2.446 7.497 2.47 7.486 2.506 7.475 2.542 7.464 2.565 7.451 2.601 7.438 2.636 7.428 2.673 7.413 2.696 7.404 2.732 7.391 2.767 7.381 2.791 7.369 2.827 7.356 2.863 7.345 2.898 7.331 2.922 7.321 2.958 7.309 2.993 7.296 3.017 7.285 3.053 7.273 3.089 7.26 3.112 7.248 3.148 7.237 3.184 7.226 3.207 7.213 3.243 7.202 3.279 7.19 3.314 7.177 3.338 7.166 3.374 7.153 3.409 7.141 3.433 7.129 3.468 7.119 3.504 7.107 3.528 7.093 3.564 7.083 3.599 7.071 3.625 7.059 3.659 7.047 3.695 7.034 3.729 7.024 3.754 7.01 3.79 7 3.825 6.986 3.848 6.975 3.885 6.964 3.92 6.951 3.956 6.941 3.98 6.928 4.015 6.917 4.051 6.904 4.075 6.891 4.111 6.88 4.146 6.868 4.17 6.858 4.205 6.845 4.243 6.834 4.265 6.821 4.301 6.809 4.336 6.798 4.373 6.784 4.396 6.774 4.431 6.762 4.467 6.748 4.49 6.74 4.527 6.726 4.562 6.715 4.585 6.703 4.622 6.691 4.658 6.678 4.68 6.667 4.717 6.657 4.752 6.642 4.789 6.631 4.811 6.619 4.847 6.606 4.883 6.596 4.906 6.584 4.943 6.571 4.977 6.56 5.013 6.548 5.036 6.536 5.072 6.524 5.108 6.513 5.132 6.501 5.168 6.489 5.203 6.477 5.227 6.464 5.263 6.453 5.298 6.441 5.322 6.429 5.359 6.416 5.393 6.404 5.429 6.394 5.453 6.381 5.49 6.37 5.524 6.358 5.548 6.346 5.584 6.333 5.62 6.322 5.643 6.311 5.679 6.297 5.714 6.286 5.749 6.274 5.774 6.262 5.809 6.251 5.845 6.239 5.869 6.229 5.904 6.215 5.942 6.203 5.964 6.191 5.999 6.179 6.036 6.168 6.07 6.156 6.095 6.144 6.13 6.134 6.167 6.118 6.189 6.108 6.226 6.096 6.26 6.086 6.283 6.073 6.322 6.059 6.356 6.049 6.393 6.037 6.415 6.026 6.356 6.013 6.298 6.001 6.237 5.991 6.179 5.977 6.119 5.966 6.058 5.952 5.999 5.942 5.942 5.93 5.869 5.916 5.809 5.906 5.749 5.894 5.691 5.884 5.632 5.871 5.571 5.857 5.5 5.848 5.441 5.835 5.382 5.823 5.322 5.811 5.263 5.799 5.203 5.788 5.193 5.788 5.144 5.775 5.086 5.764 5.025 5.75 4.965 5.739 4.906 5.728 4.847 5.716 4.789 5.704 4.717 5.692 4.658 5.681 4.597 5.668 4.538 5.656 4.479 5.645 4.419 5.633 4.36 5.622 4.301 5.609 4.243 5.597 4.181 5.585 4.122 5.573 4.063 5.561 4.003 5.549 3.932 5.538 3.873 5.526 3.813 5.514 3.754 5.504 3.695 5.49 3.634 5.479 3.576 5.466 3.516 5.454 3.457 5.444 3.385 5.43 3.338 5.419 3.279 5.407 3.22 5.394 3.148 5.383 3.089 5.371 3.029 5.359 2.97 5.347 2.91 5.337 2.851 5.324 2.791 5.311 2.732 5.3 2.673 5.288 2.601 5.278 2.554 5.264 2.494 5.252 2.423 5.241 2.363 5.228 2.304 5.217 2.245 5.206 2.185 5.194 2.126 5.181 2.066 5.169 2.007 5.159 1.947 5.145 1.876 5.134 1.828 5.122 1.77 5.108 1.698 5.099 1.65 5.085 1.58 5.075 1.519 5.062 1.461 5.05 1.401 5.038 1.341 5.026 1.282 5.015 1.222 5.004 1.164 4.991 1.091 4.979 1.044 4.966.973 4.956.926 4.943.891 4.933.855 4.919.819 4.906.783 4.897.76 4.885.735 4.872.712 4.86.688 4.848.664 4.837.641 4.824.629 4.814.605 4.801.593 4.789.569 4.777.558 4.766.546 4.753.521 4.741.51 4.729.498 4.717.487 4.705.474 4.695.462 4.681.451 4.67.439 4.659.427 4.646.415 4.622.403 4.611.391 4.599.379 4.574.368 4.562.357 4.54.344 4.515.331 4.503.32 4.479.308 4.456.296 4.433.284 4.396.272 4.36.26 4.336.247 4.301.236 4.255.225 4.207.213 4.148.201 4.052.188 3.934.177.036.177.024.188.013.26 0 .331 0 .391.049.403.083.415.131.427.179.439.214.451.262.462.311.474.345.487.381.498.428.51.464.521.501.533.548.546.583.558.619.569.654.581.69.593.725.605.761.617.797.629.832.641.869.651.892.664.927.677.964.688.999.699 1.035.712 1.057.724 1.094.735 1.13.748 1.154.76 1.189.771 1.211.783 1.249.795 1.282.807 1.309.819 1.332.831 1.367.842 1.393.855 1.425.867 1.452.877 1.474.891 1.51.902 1.534.914 1.557.926 1.592.938 1.617.95 1.641.962 1.666.973 1.7.985 1.724.996 1.748 1.009 1.771 1.021 1.795 1.033 1.819 1.044 1.843 1.057 1.865 1.067 1.902 1.079 1.926 1.091 1.948 1.104 1.972 1.116 1.998 1.128 2.022 1.14 2.045 1.151 2.067 1.164 2.091 1.175 2.115 1.188 2.128 1.198 2.15 1.211 2.174 1.222 2.2 1.234 2.224 1.247 2.247 1.259 2.269 1.27 2.294 1.282 2.305 1.295 2.329 1.306 2.354 1.318 2.378 1.33 2.39 1.341 2.413 1.354 2.436 1.366 2.46 1.378 2.473 1.39 2.495 1.39 2.495 1.413 2.509 1.461 2.52 1.496 2.531 1.543 2.543 1.592 2.556 1.638 2.568 1.685 2.58 1.722 2.591 1.77 2.604 1.816 2.614 1.865 2.627 1.9 2.639 1.947 2.65 1.995 2.663 2.042 2.675 2.09 2.687 2.126 2.698 2.173 2.711 2.22 2.721 2.268 2.734 2.317 2.747 2.351 2.758 2.399 2.769 2.446 2.78 2.494 2.794 2.529 2.806 2.577 2.816 2.625 2.83 2.673 2.84 2.719 2.854 2.756 2.865 2.803 2.876 2.851 2.889 2.898 2.899 2.947 2.913 2.981 2.923 3.029 2.937 3.077 2.949 3.124 2.959 3.161 2.972 3.207 2.982 3.255 2.994 3.302 3.007 3.338 3.018 3.385 3.032 3.433 3.042 3.481 3.054 3.528 3.066 3.564 3.078 3.611 3.092 3.659 3.102 3.707 3.114 3.754 3.125 3.79 3.137 3.837 3.149 3.885 3.161 3.932 3.173 3.968 3.185 4.015 3.198 4.063 3.209 4.111 3.221 4.158 3.234 4.194 3.244 4.243 3.256 4.288 3.267 4.336 3.281 4.384 3.292 4.419 3.304 4.467 3.316 4.515 3.327 4.562 3.339 4.597 3.352 4.646 3.363 4.693 3.376 4.741 3.387 4.789 3.399 4.823 3.412 4.871 3.423 4.919 3.435 4.965 3.448 5.013 3.459 5.05 3.47 5.096 3.482 5.144 3.494 5.193 3.506 5.239 3.518 5.276 3.53 5.322 3.542 5.37 3.554 5.406 3.565 5.453 3.579 5.5 3.59 5.548 3.6 5.596 3.611 5.632 3.626 5.679 3.637 5.727 3.648 5.774 3.661 5.821 3.672 5.857 3.684 5.904 3.696 5.953 3.707 5.999 3.722 6.036 3.732 6.084 3.744 6.13 3.755 6.179 3.767 6.226 3.781 6.26 3.791 6.31 3.805 6.356 3.815 6.403 3.827 6.451 3.838 6.486 3.85 6.535 3.862 6.582 3.874 6.629 3.886 6.677 3.9 6.713 3.91 6.76 3.922 6.807 3.934 6.855 3.946 6.891 3.957 6.938 3.969 6.987 3.983 7.033 3.993 7.082 4.005 7.117 4.017 7.164 4.029 7.21 4.041 7.26 4.052 7.307 4.066 7.342 4.077 7.391 4.09 7.438 4.101 7.485 4.111 7.521 4.124 7.567 4.134 7.617 4.148 7.663 4.16 7.699 4.172 7.746 4.184 7.794 4.195 7.842 4.207 7.889 4.218 7.925 4.231 7.972 4.244 8.019 4.255 8.068 4.267 8.103 4.277 8.151 4.291 8.198 4.301 8.245 4.314 8.293 4.326 8.329 4.336 8.377 4.35 8.424 4.36 8.471 4.373 8.518 4.386 8.555 4.396 8.602 4.41 8.649 4.42 8.696 4.433 8.745 4.445 8.78 4.456 8.827 4.469 8.874 4.479 8.923 4.491 8.959 4.503 9.006 4.515 9.053 4.529 9.103 4.54 9.15 4.552 9.184 4.562 9.231 4.574 9.28 4.588 9.328 4.599 9.374 4.611 9.399 6.56 9.399 7.141 9.386 7.153 9.374 7.166 9.34 7.177 9.316 7.19 9.28 7.202 9.255 7.213 9.231 7.226 9.196 7.237 9.172 7.248 9.137 7.26 9.114 7.273 9.079 7.285 9.053 7.296 9.019 7.309 8.996 7.321 8.971 7.331 8.935 7.345 8.912 7.356 8.874 7.369 8.852 7.381 8.817 7.391 8.791 7.404 8.757 7.413 8.733 7.428 8.696 7.438 8.674 7.451 8.649 7.464 8.614 7.475 8.59 7.486 8.555 7.497 8.532 7.511 8.495 7.522 8.471 7.535 8.435 7.547 8.412 7.558 8.377 7.571 8.354 7.583 8.329 7.594 8.293 7.605 8.27 7.616 8.234 7.629 8.21 7.64 8.174 7.652 8.151 7.666 8.115 7.676 8.091 7.688 8.056 7.7 8.032 7.712 7.996 7.726 7.972 7.737 7.949 7.749 7.913 7.759 7.889 7.771 7.854 7.783 7.83 7.795 7.794 7.809 7.769 7.82 7.735 7.831 7.711 7.842 7.687 7.854 7.652 7.868 7.627 7.878 7.591 7.892 7.567 7.903 7.533 7.915 7.509 7.927 7.474 7.938 7.45 7.95 7.414 7.961 7.391 7.973 7.366 7.985 7.332 7.997 7.307 8.009 7.271 8.022 7.249 8.033 7.21 8.046 7.188 8.058 7.152 8.069 7.128 8.08 7.093 8.094 7.07 8.104 7.033 8.117 7.011 8.128 6.987 8.139 6.951 8.153 6.927 8.163 6.891 8.177 6.868 8.187 6.832 8.199 6.807 8.213 6.773 8.223 6.748 8.236 6.725 8.246 6.689 8.259 6.665 8.271 6.629 8.282 6.605 8.295 6.57 8.306 6.547 8.318 6.51 8.33 6.486 8.342 6.451 8.355 6.427 8.365 6.403 8.378 6.368 8.39 6.345 8.4 6.31 8.415 6.283 8.425 6.249 8.438 6.226 8.45 6.189 8.461 6.167 8.473 6.13 8.486 6.106 8.497 6.07 8.508 6.047 8.521 6.023 8.531 5.988 8.544 5.964 8.558 5.928 8.568 5.904 8.58 5.869 8.591 5.845 8.604 5.809 8.617 5.786 8.627 5.763 8.639 5.727 8.652 5.702 8.663 5.667 8.674 5.643 8.686 5.607 8.699 5.584 8.71 5.548 8.722 5.524 8.734 5.49 8.745 5.465 8.76 5.441 8.769 5.406 8.781 5.382 8.794 5.346 8.806 5.322 8.819 5.287 8.83 5.263 8.842 5.227 8.853 5.203 8.865 5.168 8.875 5.144 8.889 5.108 8.901 5.086 8.913 5.062 8.925 5.025 8.936 5.002 8.948 4.965 8.959 4.943 8.972 4.906 8.984 4.883 8.994 4.847 9.008 4.823 9.021 4.789 9.031 4.763 9.043 4.741 9.054 4.705 9.067 4.68 9.079 4.646 9.091 4.622 9.103 4.585 9.115 4.562 9.127 4.527 9.138 4.502 9.151 4.479 9.164 4.443 9.174 4.419 9.186 4.384 9.197 4.36 9.21 4.325 9.221 4.301 9.233 4.265 9.245 4.243 9.257 4.205 9.27 4.181 9.281 4.158 9.293 4.122 9.305 4.098 9.315 4.063 9.329 4.038 9.34 4.003 9.352 3.98 9.365 3.943 9.376 3.92 9.387 3.885 9.398 3.861 9.411 3.825 9.423 3.801 9.436 3.778 9.448 3.742 9.458 3.718 9.47 3.682 9.483 3.659 9.494 3.625 9.508 3.599 9.519 3.564 9.531 3.539 9.541 3.516 9.554 3.481 9.566 3.457 9.578 3.421 9.59 3.397 9.602 3.362 9.614 3.338 9.625 3.302 9.638 3.279 9.65 3.243 9.661 3.22 9.673 3.184 9.684 3.161 9.696 3.136 9.709 3.101 9.721 3.077 9.733 3.041 9.744 3.017 9.756 2.981 9.767 2.958 9.781 2.922 9.793 2.898 9.804 2.863 9.816 2.839 9.828 2.815 9.839 2.779 9.851 2.756 9.863 2.719 9.876 2.696 9.886 2.661 9.899 2.636 9.911 2.601 9.923 2.577 9.934 2.554 9.946 2.519 9.958 2.494 9.972 2.459 9.983 2.435 9.995 2.399 10.006 2.375 10.018 2.34 10.028 2.317 10.04 2.281 10.054 2.257 10.064 2.232 10.078 2.197 10.089 2.173 10.101 2.137 10.114 2.114 10.125 2.078 10.138 2.055 10.149 2.019 10.161 1.995 10.172 1.959 10.183 1.936 10.197 1.9 10.207 1.876 10.22 1.852 10.231 1.816 10.243 1.793 10.255 1.757 10.267 1.733 10.28 1.698 10.291 1.675 10.303 1.638 10.315 1.614 10.327 1.592 10.339 1.556 10.351 1.532 10.363 1.496 10.372 1.472 10.385 1.436 10.396 1.413 10.409 1.378 10.421 1.354 10.434 1.318 10.445 1.295 10.458 1.27 10.47 1.234 10.483 1.211 10.493 1.175 10.507 1.151 10.516 1.116 10.528 1.091 10.54 1.057 10.551 1.033 10.565.996 10.575.973 10.588.938 10.6.914 10.611.891 10.623.855 10.636.831 10.648.795 10.659.771 10.672.735 10.684.712 10.694.677 10.707.651 10.719.629 10.73.593 10.743.569 10.753.533 10.766.51 10.776.474 10.79.451 10.802.415 10.813.391 10.827.357 10.837.331 10.851.308 10.863.272 10.874.247 10.886.213 10.886.188z" transform="translate(0 .588)"/>
    </g>
</svg>
